# xmcd CD database file
# Copyright (C) 1996 Ti Kan
#
# Track frame offsets:
# 	150
# 	10285
# 	22665
# 	36155
# 	47592
# 	59590
# 	75635
# 	88902
# 	101562
# 	111065
# 	123247
# 	135942
# 	150447
# 	161445
# 	173352
# 	188282
# 	196730
# 	210497
# 	221895
# 	235832
#
# Disc length: 3282 seconds
#
# Revision: 1
# Processed by: cddbd v1.4b41PL1 Copyright (c) Steve Scherf et al.
# Submitted via: DiscPlay 3.4.1
#
DISCID=ee0cd014
DTITLE=Charley Pride - Charley Pride's Greatest
DYEAR=1900
DGENRE=
TTITLE0=Is Anybody Goin' To San Antone
TTITLE1=The Snakes Crawl At Night
TTITLE2=All His Children
TTITLE3=Six Days On The Road
TTITLE4=Shutters And Boards
TTITLE5=Me And Bobby McGee
TTITLE6=Kiss An Angel Goodmorning
TTITLE7=The Banks Of The Ohio
TTITLE8=Don't Fight The Feelings Of Love
TTITLE9=Lovesick Blues
TTITLE10=Crystal Chandelier
TTITLE11=Kaw Lija
TTITLE12=Wings Of A Dove
TTITLE13=Folsom Prison Blues
TTITLE14=Miller's Cave
TTITLE15=Piroque Joe
TTITLE16=All I Have To Offer You Is Me
TTITLE17=Sunshiny Day
TTITLE18=Detroit City
TTITLE19=The Last Thing On My Mind
EXTD=
EXTT0=
EXTT1=
EXTT2=
EXTT3=
EXTT4=
EXTT5=
EXTT6=
EXTT7=
EXTT8=
EXTT9=
EXTT10=
EXTT11=
EXTT12=
EXTT13=
EXTT14=
EXTT15=
EXTT16=
EXTT17=
EXTT18=
EXTT19=
PLAYORDER=
